<svg width="64" height="64" viewBox="0 0 64 64" fill="none" xmlns="http://www.w3.org/2000/svg">
<g id="Desktop">
<path id="Vector" d="M52 10H12C10.4087 10 8.88258 10.6321 7.75736 11.7574C6.63214 12.8826 6 14.4087 6 16V44C6 45.5913 6.63214 47.1174 7.75736 48.2426C8.88258 49.3679 10.4087 50 12 50H30V54H24C23.4696 54 22.9609 54.2107 22.5858 54.5858C22.2107 54.9609 22 55.4696 22 56C22 56.5304 22.2107 57.0391 22.5858 57.4142C22.9609 57.7893 23.4696 58 24 58H40C40.5304 58 41.0391 57.7893 41.4142 57.4142C41.7893 57.0391 42 56.5304 42 56C42 55.4696 41.7893 54.9609 41.4142 54.5858C41.0391 54.2107 40.5304 54 40 54H34V50H52C53.5913 50 55.1174 49.3679 56.2426 48.2426C57.3679 47.1174 58 45.5913 58 44V16C58 14.4087 57.3679 12.8826 56.2426 11.7574C55.1174 10.6321 53.5913 10 52 10ZM12 14H52C52.5304 14 53.0391 14.2107 53.4142 14.5858C53.7893 14.9609 54 15.4696 54 16V36H10V16C10 15.4696 10.2107 14.9609 10.5858 14.5858C10.9609 14.2107 11.4696 14 12 14ZM52 46H12C11.4696 46 10.9609 45.7893 10.5858 45.4142C10.2107 45.0391 10 44.5304 10 44V40H54V44C54 44.5304 53.7893 45.0391 53.4142 45.4142C53.0391 45.7893 52.5304 46 52 46Z" fill="#F4F4F4"/>
</g>
</svg>
