<svg width="64" height="64" viewBox="0 0 64 64" fill="none" xmlns="http://www.w3.org/2000/svg">
<g id="FileAudio">
<path id="Vector" d="M24.765 32.1525C24.3996 32.0009 23.9974 31.9611 23.6094 32.0381C23.2214 32.115 22.8649 32.3054 22.585 32.585L17.1725 38H12C11.4696 38 10.9609 38.2107 10.5858 38.5858C10.2107 38.9609 10 39.4696 10 40V50C10 50.5304 10.2107 51.0391 10.5858 51.4142C10.9609 51.7893 11.4696 52 12 52H17.1725L22.585 57.415C22.8647 57.695 23.2212 57.8858 23.6094 57.9631C23.9976 58.0404 24.3999 58.0007 24.7656 57.8492C25.1312 57.6977 25.4437 57.4412 25.6634 57.112C25.8832 56.7828 26.0003 56.3958 26 56V34C25.9999 33.6044 25.8825 33.2178 25.6627 32.8889C25.4429 32.5601 25.1305 32.3038 24.765 32.1525ZM22 51.1725L19.415 48.585C19.2291 48.3993 19.0085 48.2521 18.7657 48.1517C18.5229 48.0513 18.2627 47.9998 18 48H14V42H18C18.2627 42.0002 18.5229 41.9487 18.7657 41.8483C19.0085 41.7479 19.2291 41.6007 19.415 41.415L22 38.8275V51.1725ZM38 45C37.9979 46.764 37.5356 48.497 36.6587 50.0276C35.7818 51.5582 34.5207 52.8335 33 53.7275C32.5446 53.9542 32.0199 53.9989 31.5328 53.8525C31.0456 53.706 30.6325 53.3794 30.3777 52.9391C30.1228 52.4988 30.0453 51.978 30.1609 51.4826C30.2765 50.9872 30.5766 50.5545 31 50.2725C31.9169 49.7313 32.6768 48.9603 33.2047 48.0357C33.7326 47.111 34.0103 46.0647 34.0103 45C34.0103 43.9353 33.7326 42.889 33.2047 41.9643C32.6768 41.0397 31.9169 40.2687 31 39.7275C30.5766 39.4455 30.2765 39.0128 30.1609 38.5174C30.0453 38.022 30.1228 37.5012 30.3777 37.0609C30.6325 36.6206 31.0456 36.294 31.5328 36.1475C32.0199 36.0011 32.5446 36.0458 33 36.2725C34.5207 37.1665 35.7818 38.4418 36.6587 39.9724C37.5356 41.503 37.9979 43.236 38 45ZM53.415 20.585L39.415 6.585C39.2291 6.39933 39.0085 6.2521 38.7657 6.15173C38.5229 6.05135 38.2627 5.99979 38 6H14C12.9391 6 11.9217 6.42143 11.1716 7.17157C10.4214 7.92172 10 8.93913 10 10V30C10 30.5304 10.2107 31.0391 10.5858 31.4142C10.9609 31.7893 11.4696 32 12 32C12.5304 32 13.0391 31.7893 13.4142 31.4142C13.7893 31.0391 14 30.5304 14 30V10H36V22C36 22.5304 36.2107 23.0391 36.5858 23.4142C36.9609 23.7893 37.4696 24 38 24H50V54H42C41.4696 54 40.9609 54.2107 40.5858 54.5858C40.2107 54.9609 40 55.4696 40 56C40 56.5304 40.2107 57.0391 40.5858 57.4142C40.9609 57.7893 41.4696 58 42 58H50C51.0609 58 52.0783 57.5786 52.8284 56.8284C53.5786 56.0783 54 55.0609 54 54V22C54.0002 21.7373 53.9487 21.4771 53.8483 21.2343C53.7479 20.9915 53.6007 20.7709 53.415 20.585ZM40 12.8275L47.1725 20H40V12.8275Z" fill="#F4F4F4"/>
</g>
</svg>
