<svg width="64" height="64" viewBox="0 0 64 64" fill="none" xmlns="http://www.w3.org/2000/svg">
<g id="FileArrowUp">
<path id="Vector" opacity="0.2" d="M52 22H38V8L52 22Z" fill="#E0DDD6"/>
<path id="Vector_2" d="M53.415 20.585L39.415 6.585C39.2291 6.39933 39.0085 6.2521 38.7657 6.15173C38.5229 6.05135 38.2627 5.99979 38 6H14C12.9391 6 11.9217 6.42143 11.1716 7.17157C10.4214 7.92172 10 8.93913 10 10V54C10 55.0609 10.4214 56.0783 11.1716 56.8284C11.9217 57.5786 12.9391 58 14 58H50C51.0609 58 52.0783 57.5786 52.8284 56.8284C53.5786 56.0783 54 55.0609 54 54V22C54.0002 21.7373 53.9487 21.4771 53.8483 21.2343C53.7479 20.9915 53.6007 20.7709 53.415 20.585ZM40 12.8275L47.1725 20H40V12.8275ZM50 54H14V10H36V22C36 22.5304 36.2107 23.0391 36.5858 23.4142C36.9609 23.7893 37.4696 24 38 24H50V54ZM39.415 34.585C39.6008 34.7708 39.7482 34.9914 39.8488 35.2342C39.9494 35.477 40.0011 35.7372 40.0011 36C40.0011 36.2628 39.9494 36.523 39.8488 36.7658C39.7482 37.0086 39.6008 37.2292 39.415 37.415C39.2292 37.6008 39.0086 37.7482 38.7658 37.8488C38.523 37.9494 38.2628 38.0011 38 38.0011C37.7372 38.0011 37.477 37.9494 37.2342 37.8488C36.9914 37.7482 36.7708 37.6008 36.585 37.415L34 34.8275V46C34 46.5304 33.7893 47.0391 33.4142 47.4142C33.0391 47.7893 32.5304 48 32 48C31.4696 48 30.9609 47.7893 30.5858 47.4142C30.2107 47.0391 30 46.5304 30 46V34.8275L27.415 37.415C27.2292 37.6008 27.0086 37.7482 26.7658 37.8488C26.523 37.9494 26.2628 38.0011 26 38.0011C25.7372 38.0011 25.477 37.9494 25.2342 37.8488C24.9914 37.7482 24.7708 37.6008 24.585 37.415C24.3992 37.2292 24.2518 37.0086 24.1512 36.7658C24.0506 36.523 23.9989 36.2628 23.9989 36C23.9989 35.7372 24.0506 35.477 24.1512 35.2342C24.2518 34.9914 24.3992 34.7708 24.585 34.585L30.585 28.585C30.7707 28.399 30.9913 28.2515 31.2341 28.1509C31.4769 28.0502 31.7372 27.9984 32 27.9984C32.2628 27.9984 32.5231 28.0502 32.7659 28.1509C33.0087 28.2515 33.2293 28.399 33.415 28.585L39.415 34.585Z" fill="#E0DDD6"/>
</g>
</svg>
