<svg width="44" height="44" viewBox="0 0 44 44" fill="none" xmlns="http://www.w3.org/2000/svg">
<g id="FolderNotchOpen">
<path id="Vector" opacity="0.2" d="M35.75 15.125V19.25H25.1659C24.8945 19.2504 24.6292 19.3305 24.4028 19.4803L20.9653 21.7697C20.739 21.9195 20.4736 21.9996 20.2022 22H11.9316C11.6576 21.9999 11.3898 22.0816 11.1625 22.2347C10.9353 22.3878 10.759 22.6054 10.6562 22.8594L5.5 35.75V11C5.5 10.6353 5.64487 10.2856 5.90273 10.0277C6.16059 9.76987 6.51033 9.625 6.875 9.625H16.0411C16.3386 9.625 16.6281 9.72149 16.8661 9.9L21.6339 13.475C21.8719 13.6535 22.1614 13.75 22.4589 13.75H34.375C34.7397 13.75 35.0894 13.8949 35.3473 14.1527C35.6051 14.4106 35.75 14.7603 35.75 15.125Z" fill="#F4F4F4"/>
<path id="Vector_2" d="M42.1094 19.0162C41.8542 18.6624 41.5184 18.3744 41.1299 18.176C40.7414 17.9775 40.3113 17.8744 39.875 17.875H37.125V15.125C37.125 14.3957 36.8353 13.6962 36.3195 13.1805C35.8038 12.6647 35.1043 12.375 34.375 12.375H22.4589L17.6928 8.8C17.216 8.44453 16.6375 8.25172 16.0428 8.25H6.875C6.14565 8.25 5.44618 8.53973 4.93046 9.05546C4.41473 9.57118 4.125 10.2707 4.125 11V35.75C4.125 36.1147 4.26987 36.4644 4.52773 36.7223C4.78559 36.9801 5.13533 37.125 5.5 37.125H36.2828C36.5714 37.125 36.8527 37.0342 37.0868 36.8655C37.321 36.6968 37.4961 36.4586 37.5873 36.1848L42.4841 21.4947C42.6218 21.0813 42.6596 20.6412 42.5945 20.2105C42.5294 19.7797 42.3631 19.3704 42.1094 19.0162ZM16.0428 11L20.8089 14.575C21.2856 14.9307 21.8641 15.1235 22.4589 15.125H34.375V17.875H25.1677C24.6244 17.875 24.0933 18.0359 23.6414 18.3373L20.2039 20.625H11.9316C11.3815 20.6235 10.8436 20.7876 10.3881 21.096C9.93257 21.4044 9.58042 21.8428 9.3775 22.3541L6.875 28.6103V11H16.0428ZM35.2928 34.375H7.53156L11.9316 23.375H20.2091C20.7523 23.375 21.2834 23.2141 21.7353 22.9127L25.1728 20.625H39.875L35.2928 34.375Z" fill="#F4F4F4"/>
</g>
</svg>
