<svg width="44" height="44" viewBox="0 0 44 44" fill="none" xmlns="http://www.w3.org/2000/svg">
<g id="MagicWand">
<path id="Vector" opacity="0.2" d="M30.25 19.25L12.7772 36.7228C12.5193 36.9805 12.1697 37.1252 11.8052 37.1252C11.4407 37.1252 11.0911 36.9805 10.8333 36.7228L7.27717 33.1719C7.0195 32.914 6.87476 32.5644 6.87476 32.1999C6.87476 31.8354 7.0195 31.4858 7.27717 31.228L24.75 13.75L30.25 19.25Z" fill="#BAEF58"/>
<path id="Vector_2" d="M42.6251 26.125C42.6251 26.4897 42.4802 26.8394 42.2224 27.0973C41.9645 27.3551 41.6148 27.5 41.2501 27.5H38.5001V30.25C38.5001 30.6147 38.3552 30.9644 38.0974 31.2223C37.8395 31.4801 37.4898 31.625 37.1251 31.625C36.7604 31.625 36.4107 31.4801 36.1528 31.2223C35.8949 30.9644 35.7501 30.6147 35.7501 30.25V27.5H33.0001C32.6354 27.5 32.2857 27.3551 32.0278 27.0973C31.7699 26.8394 31.6251 26.4897 31.6251 26.125C31.6251 25.7603 31.7699 25.4106 32.0278 25.1527C32.2857 24.8949 32.6354 24.75 33.0001 24.75H35.7501V22C35.7501 21.6353 35.8949 21.2856 36.1528 21.0277C36.4107 20.7699 36.7604 20.625 37.1251 20.625C37.4898 20.625 37.8395 20.7699 38.0974 21.0277C38.3552 21.2856 38.5001 21.6353 38.5001 22V24.75H41.2501C41.6148 24.75 41.9645 24.8949 42.2224 25.1527C42.4802 25.4106 42.6251 25.7603 42.6251 26.125ZM9.62508 12.375H12.3751V15.125C12.3751 15.4897 12.5199 15.8394 12.7778 16.0973C13.0357 16.3551 13.3854 16.5 13.7501 16.5C14.1148 16.5 14.4645 16.3551 14.7224 16.0973C14.9802 15.8394 15.1251 15.4897 15.1251 15.125V12.375H17.8751C18.2398 12.375 18.5895 12.2301 18.8474 11.9723C19.1052 11.7144 19.2501 11.3647 19.2501 11C19.2501 10.6353 19.1052 10.2856 18.8474 10.0277C18.5895 9.76987 18.2398 9.625 17.8751 9.625H15.1251V6.875C15.1251 6.51033 14.9802 6.16059 14.7224 5.90273C14.4645 5.64487 14.1148 5.5 13.7501 5.5C13.3854 5.5 13.0357 5.64487 12.7778 5.90273C12.5199 6.16059 12.3751 6.51033 12.3751 6.875V9.625H9.62508C9.26041 9.625 8.91067 9.76987 8.65281 10.0277C8.39495 10.2856 8.25008 10.6353 8.25008 11C8.25008 11.3647 8.39495 11.7144 8.65281 11.9723C8.91067 12.2301 9.26041 12.375 9.62508 12.375ZM31.6251 33H30.2501V31.625C30.2501 31.2603 30.1052 30.9106 29.8474 30.6527C29.5895 30.3949 29.2398 30.25 28.8751 30.25C28.5104 30.25 28.1607 30.3949 27.9028 30.6527C27.6449 30.9106 27.5001 31.2603 27.5001 31.625V33H26.1251C25.7604 33 25.4107 33.1449 25.1528 33.4027C24.8949 33.6606 24.7501 34.0103 24.7501 34.375C24.7501 34.7397 24.8949 35.0894 25.1528 35.3473C25.4107 35.6051 25.7604 35.75 26.1251 35.75H27.5001V37.125C27.5001 37.4897 27.6449 37.8394 27.9028 38.0973C28.1607 38.3551 28.5104 38.5 28.8751 38.5C29.2398 38.5 29.5895 38.3551 29.8474 38.0973C30.1052 37.8394 30.2501 37.4897 30.2501 37.125V35.75H31.6251C31.9898 35.75 32.3395 35.6051 32.5974 35.3473C32.8552 35.0894 33.0001 34.7397 33.0001 34.375C33.0001 34.0103 32.8552 33.6606 32.5974 33.4027C32.3395 33.1449 31.9898 33 31.6251 33ZM37.694 13.75L13.7501 37.6939C13.2344 38.2092 12.5352 38.4987 11.8062 38.4987C11.0771 38.4987 10.3779 38.2092 9.86227 37.6939L6.30446 34.1395C6.04903 33.8842 5.84641 33.581 5.70817 33.2473C5.56993 32.9136 5.49878 32.556 5.49878 32.1948C5.49878 31.8336 5.56993 31.4759 5.70817 31.1422C5.84641 30.8086 6.04903 30.5054 6.30446 30.25L30.2501 6.30609C30.5055 6.05067 30.8086 5.84805 31.1423 5.70981C31.476 5.57157 31.8337 5.50042 32.1948 5.50042C32.556 5.50042 32.9137 5.57157 33.2474 5.70981C33.5811 5.84805 33.8842 6.05067 34.1396 6.30609L37.694 9.86047C37.9494 10.1158 38.152 10.419 38.2903 10.7527C38.4285 11.0864 38.4997 11.444 38.4997 11.8052C38.4997 12.1664 38.4285 12.5241 38.2903 12.8578C38.152 13.1914 37.9494 13.4946 37.694 13.75ZM28.3045 19.25L24.7501 15.6939L8.25008 32.1939L11.8045 35.75L28.3045 19.25ZM35.7501 11.8061L32.194 8.25L26.694 13.75L30.2501 17.3061L35.7501 11.8061Z" fill="#BAEF58"/>
</g>
</svg>
