<svg width="44" height="44" viewBox="0 0 44 44" fill="none" xmlns="http://www.w3.org/2000/svg">
<g id="PlusCircle">
<path id="Vector" opacity="0.2" d="M38.5 22C38.5 25.2634 37.5323 28.4535 35.7193 31.1669C33.9062 33.8803 31.3293 35.9952 28.3143 37.244C25.2993 38.4929 21.9817 38.8196 18.781 38.183C15.5803 37.5463 12.6403 35.9748 10.3327 33.6673C8.02518 31.3597 6.45371 28.4197 5.81705 25.219C5.18039 22.0183 5.50715 18.7007 6.756 15.6857C8.00484 12.6707 10.1197 10.0938 12.8331 8.28075C15.5465 6.46771 18.7366 5.5 22 5.5C26.3761 5.5 30.5729 7.23839 33.6673 10.3327C36.7616 13.4271 38.5 17.6239 38.5 22Z" fill="#BAEF58"/>
<path id="Vector_2" d="M22 4.125C18.4647 4.125 15.0087 5.17335 12.0692 7.13748C9.12966 9.10161 6.83858 11.8933 5.48566 15.1595C4.13274 18.4258 3.77876 22.0198 4.46847 25.4872C5.15818 28.9547 6.86061 32.1397 9.36047 34.6395C11.8603 37.1394 15.0454 38.8418 18.5128 39.5315C21.9802 40.2212 25.5742 39.8673 28.8405 38.5143C32.1067 37.1614 34.8984 34.8703 36.8625 31.9308C38.8267 28.9913 39.875 25.5353 39.875 22C39.87 17.2608 37.9851 12.7171 34.634 9.36599C31.2829 6.01487 26.7392 4.13 22 4.125ZM22 37.125C19.0086 37.125 16.0843 36.2379 13.597 34.576C11.1097 32.914 9.17111 30.5518 8.02633 27.7881C6.88155 25.0244 6.58203 21.9832 7.16563 19.0493C7.74923 16.1153 9.18975 13.4203 11.305 11.305C13.4203 9.18974 16.1153 7.74922 19.0493 7.16562C21.9832 6.58202 25.0244 6.88155 27.7881 8.02632C30.5518 9.1711 32.914 11.1097 34.576 13.597C36.2379 16.0843 37.125 19.0086 37.125 22C37.1205 26.01 35.5255 29.8545 32.69 32.69C29.8545 35.5255 26.01 37.1204 22 37.125ZM30.25 22C30.25 22.3647 30.1051 22.7144 29.8473 22.9723C29.5894 23.2301 29.2397 23.375 28.875 23.375H23.375V28.875C23.375 29.2397 23.2301 29.5894 22.9723 29.8473C22.7144 30.1051 22.3647 30.25 22 30.25C21.6353 30.25 21.2856 30.1051 21.0277 29.8473C20.7699 29.5894 20.625 29.2397 20.625 28.875V23.375H15.125C14.7603 23.375 14.4106 23.2301 14.1527 22.9723C13.8949 22.7144 13.75 22.3647 13.75 22C13.75 21.6353 13.8949 21.2856 14.1527 21.0277C14.4106 20.7699 14.7603 20.625 15.125 20.625H20.625V15.125C20.625 14.7603 20.7699 14.4106 21.0277 14.1527C21.2856 13.8949 21.6353 13.75 22 13.75C22.3647 13.75 22.7144 13.8949 22.9723 14.1527C23.2301 14.4106 23.375 14.7603 23.375 15.125V20.625H28.875C29.2397 20.625 29.5894 20.7699 29.8473 21.0277C30.1051 21.2856 30.25 21.6353 30.25 22Z" fill="#BAEF58"/>
</g>
</svg>
