<svg width="44" height="44" viewBox="0 0 44 44" fill="none" xmlns="http://www.w3.org/2000/svg">
<g id="Subtitles">
<path id="Vector" opacity="0.2" d="M39.875 11V33C39.875 33.3647 39.7301 33.7144 39.4723 33.9723C39.2144 34.2301 38.8647 34.375 38.5 34.375H5.5C5.13533 34.375 4.78559 34.2301 4.52773 33.9723C4.26987 33.7144 4.125 33.3647 4.125 33V11C4.125 10.6353 4.26987 10.2856 4.52773 10.0277C4.78559 9.76987 5.13533 9.625 5.5 9.625H38.5C38.8647 9.625 39.2144 9.76987 39.4723 10.0277C39.7301 10.2856 39.875 10.6353 39.875 11Z" fill="#F4F4F4"/>
<path id="Vector_2" d="M38.5 8.25H5.5C4.77065 8.25 4.07118 8.53973 3.55546 9.05546C3.03973 9.57118 2.75 10.2707 2.75 11V33C2.75 33.7293 3.03973 34.4288 3.55546 34.9445C4.07118 35.4603 4.77065 35.75 5.5 35.75H38.5C39.2293 35.75 39.9288 35.4603 40.4445 34.9445C40.9603 34.4288 41.25 33.7293 41.25 33V11C41.25 10.2707 40.9603 9.57118 40.4445 9.05546C39.9288 8.53973 39.2293 8.25 38.5 8.25ZM38.5 33H5.5V11H38.5V33ZM8.25 23.375C8.25 23.0103 8.39487 22.6606 8.65273 22.4027C8.91059 22.1449 9.26033 22 9.625 22H12.375C12.7397 22 13.0894 22.1449 13.3473 22.4027C13.6051 22.6606 13.75 23.0103 13.75 23.375C13.75 23.7397 13.6051 24.0894 13.3473 24.3473C13.0894 24.6051 12.7397 24.75 12.375 24.75H9.625C9.26033 24.75 8.91059 24.6051 8.65273 24.3473C8.39487 24.0894 8.25 23.7397 8.25 23.375ZM35.75 23.375C35.75 23.7397 35.6051 24.0894 35.3473 24.3473C35.0894 24.6051 34.7397 24.75 34.375 24.75H17.875C17.5103 24.75 17.1606 24.6051 16.9027 24.3473C16.6449 24.0894 16.5 23.7397 16.5 23.375C16.5 23.0103 16.6449 22.6606 16.9027 22.4027C17.1606 22.1449 17.5103 22 17.875 22H34.375C34.7397 22 35.0894 22.1449 35.3473 22.4027C35.6051 22.6606 35.75 23.0103 35.75 23.375ZM27.5 28.875C27.5 29.2397 27.3551 29.5894 27.0973 29.8473C26.8394 30.1051 26.4897 30.25 26.125 30.25H9.625C9.26033 30.25 8.91059 30.1051 8.65273 29.8473C8.39487 29.5894 8.25 29.2397 8.25 28.875C8.25 28.5103 8.39487 28.1606 8.65273 27.9027C8.91059 27.6449 9.26033 27.5 9.625 27.5H26.125C26.4897 27.5 26.8394 27.6449 27.0973 27.9027C27.3551 28.1606 27.5 28.5103 27.5 28.875ZM35.75 28.875C35.75 29.2397 35.6051 29.5894 35.3473 29.8473C35.0894 30.1051 34.7397 30.25 34.375 30.25H31.625C31.2603 30.25 30.9106 30.1051 30.6527 29.8473C30.3949 29.5894 30.25 29.2397 30.25 28.875C30.25 28.5103 30.3949 28.1606 30.6527 27.9027C30.9106 27.6449 31.2603 27.5 31.625 27.5H34.375C34.7397 27.5 35.0894 27.6449 35.3473 27.9027C35.6051 28.1606 35.75 28.5103 35.75 28.875Z" fill="#F4F4F4"/>
</g>
</svg>
