<svg width="51" height="36" viewBox="0 0 51 36" fill="none" xmlns="http://www.w3.org/2000/svg">
<path id="Vector" d="M46.8 0H3.6C2.64522 0 1.72955 0.379284 1.05442 1.05442C0.379285 1.72955 0 2.64522 0 3.6V32.4C0 33.3548 0.379285 34.2705 1.05442 34.9456C1.72955 35.6207 2.64522 36 3.6 36H46.8C47.7548 36 48.6705 35.6207 49.3456 34.9456C50.0207 34.2705 50.4 33.3548 50.4 32.4V3.6C50.4 2.64522 50.0207 1.72955 49.3456 1.05442C48.6705 0.379284 47.7548 0 46.8 0ZM46.8 32.4H3.6V3.6H46.8V32.4ZM7.2 19.8C7.2 19.3226 7.38964 18.8648 7.72721 18.5272C8.06477 18.1896 8.52261 18 9 18H12.6C13.0774 18 13.5352 18.1896 13.8728 18.5272C14.2104 18.8648 14.4 19.3226 14.4 19.8C14.4 20.2774 14.2104 20.7352 13.8728 21.0728C13.5352 21.4104 13.0774 21.6 12.6 21.6H9C8.52261 21.6 8.06477 21.4104 7.72721 21.0728C7.38964 20.7352 7.2 20.2774 7.2 19.8ZM43.2 19.8C43.2 20.2774 43.0104 20.7352 42.6728 21.0728C42.3352 21.4104 41.8774 21.6 41.4 21.6H19.8C19.3226 21.6 18.8648 21.4104 18.5272 21.0728C18.1896 20.7352 18 20.2774 18 19.8C18 19.3226 18.1896 18.8648 18.5272 18.5272C18.8648 18.1896 19.3226 18 19.8 18H41.4C41.8774 18 42.3352 18.1896 42.6728 18.5272C43.0104 18.8648 43.2 19.3226 43.2 19.8ZM32.4 27C32.4 27.4774 32.2104 27.9352 31.8728 28.2728C31.5352 28.6104 31.0774 28.8 30.6 28.8H9C8.52261 28.8 8.06477 28.6104 7.72721 28.2728C7.38964 27.9352 7.2 27.4774 7.2 27C7.2 26.5226 7.38964 26.0648 7.72721 25.7272C8.06477 25.3896 8.52261 25.2 9 25.2H30.6C31.0774 25.2 31.5352 25.3896 31.8728 25.7272C32.2104 26.0648 32.4 26.5226 32.4 27ZM43.2 27C43.2 27.4774 43.0104 27.9352 42.6728 28.2728C42.3352 28.6104 41.8774 28.8 41.4 28.8H37.8C37.3226 28.8 36.8648 28.6104 36.5272 28.2728C36.1896 27.9352 36 27.4774 36 27C36 26.5226 36.1896 26.0648 36.5272 25.7272C36.8648 25.3896 37.3226 25.2 37.8 25.2H41.4C41.8774 25.2 42.3352 25.3896 42.6728 25.7272C43.0104 26.0648 43.2 26.5226 43.2 27Z" fill="white"/>
</svg>
