<svg width="18" height="18" viewBox="0 0 18 18" fill="none" xmlns="http://www.w3.org/2000/svg">
<g id="MagicWand">
<path id="Vector" d="M16.0625 3.53125H2.9375C2.64742 3.53125 2.36922 3.64648 2.1641 3.8516C1.95898 4.05672 1.84375 4.33492 1.84375 4.625V13.375C1.84375 13.6651 1.95898 13.9433 2.1641 14.1484C2.36922 14.3535 2.64742 14.4688 2.9375 14.4688H16.0625C16.3526 14.4688 16.6308 14.3535 16.8359 14.1484C17.041 13.9433 17.1562 13.6651 17.1562 13.375V4.625C17.1562 4.33492 17.041 4.05672 16.8359 3.8516C16.6308 3.64648 16.3526 3.53125 16.0625 3.53125ZM16.0625 13.375H2.9375V4.625H16.0625V13.375ZM4.03125 9.54688C4.03125 9.40183 4.08887 9.26273 4.19143 9.16018C4.29399 9.05762 4.43308 9 4.57812 9H5.67188C5.81692 9 5.95602 9.05762 6.05857 9.16018C6.16113 9.26273 6.21875 9.40183 6.21875 9.54688C6.21875 9.69192 6.16113 9.83102 6.05857 9.93357C5.95602 10.0361 5.81692 10.0938 5.67188 10.0938H4.57812C4.43308 10.0938 4.29399 10.0361 4.19143 9.93357C4.08887 9.83102 4.03125 9.69192 4.03125 9.54688ZM14.9688 9.54688C14.9688 9.69192 14.9111 9.83102 14.8086 9.93357C14.706 10.0361 14.5669 10.0938 14.4219 10.0938H7.85938C7.71433 10.0938 7.57523 10.0361 7.47268 9.93357C7.37012 9.83102 7.3125 9.69192 7.3125 9.54688C7.3125 9.40183 7.37012 9.26273 7.47268 9.16018C7.57523 9.05762 7.71433 9 7.85938 9H14.4219C14.5669 9 14.706 9.05762 14.8086 9.16018C14.9111 9.26273 14.9688 9.40183 14.9688 9.54688ZM11.6875 11.7344C11.6875 11.8794 11.6299 12.0185 11.5273 12.1211C11.4248 12.2236 11.2857 12.2812 11.1406 12.2812H4.57812C4.43308 12.2812 4.29399 12.2236 4.19143 12.1211C4.08887 12.0185 4.03125 11.8794 4.03125 11.7344C4.03125 11.5893 4.08887 11.4502 4.19143 11.3477C4.29399 11.2451 4.43308 11.1875 4.57812 11.1875H11.1406C11.2857 11.1875 11.4248 11.2451 11.5273 11.3477C11.6299 11.4502 11.6875 11.5893 11.6875 11.7344ZM14.9688 11.7344C14.9688 11.8794 14.9111 12.0185 14.8086 12.1211C14.706 12.2236 14.5669 12.2812 14.4219 12.2812H13.3281C13.1831 12.2812 13.044 12.2236 12.9414 12.1211C12.8389 12.0185 12.7812 11.8794 12.7812 11.7344C12.7812 11.5893 12.8389 11.4502 12.9414 11.3477C13.044 11.2451 13.1831 11.1875 13.3281 11.1875H14.4219C14.5669 11.1875 14.706 11.2451 14.8086 11.3477C14.9111 11.4502 14.9688 11.5893 14.9688 11.7344Z" fill="black"/>
</g>
</svg>
