<svg width="57" height="58" viewBox="0 0 57 58" fill="none" xmlns="http://www.w3.org/2000/svg">
<path d="M2.35135 6.27028C2.35135 4.10592 4.10592 2.35135 6.27027 2.35135H32.9189C35.0833 2.35135 36.8378 4.10591 36.8378 6.27027V16.9974C36.8378 18.0367 36.4249 19.0335 35.69 19.7685L21.336 34.1225C20.6011 34.8574 19.6043 35.2703 18.5649 35.2703H6.27027C4.10591 35.2703 2.35135 33.5157 2.35135 31.3514V6.27028Z" stroke="white" stroke-width="4.7027"/>
<path d="M19.5948 37.8674C19.5948 36.8281 20.0076 35.8313 20.7426 35.0963L35.0966 20.7423C35.8315 20.0074 36.8283 19.5945 37.8677 19.5945H50.1623C52.3267 19.5945 54.0812 21.3491 54.0812 23.5134V51.7296C54.0812 53.894 52.3267 55.6486 50.1623 55.6486H23.5137C21.3493 55.6486 19.5948 53.894 19.5948 51.7297V37.8674Z" fill="white" fill-opacity="0.2" stroke="white" stroke-width="4.7027"/>
<rect x="9.40527" y="12.5405" width="18.8108" height="2.35135" fill="white"/>
<rect x="17.2432" y="12.5405" width="4.7027" height="2.35135" transform="rotate(-90 17.2432 12.5405)" fill="white"/>
<path d="M10.189 24.2973C15.4142 24.0361 25.3944 21.6325 23.5133 14.1082" stroke="white" stroke-width="2.35135"/>
<path d="M22.4973 25.865C17.2721 25.6038 13.0919 21.9461 12.5408 17.2434" stroke="white" stroke-width="2.35135"/>
<path d="M41.8146 43.3273H36.1674L35.2622 46H31.404L36.8787 30.8691H41.1464L46.6211 46H42.7199L41.8146 43.3273ZM40.8662 40.4822L38.991 34.9428L37.1374 40.4822H40.8662Z" fill="white"/>
</svg>
