<svg width="19" height="18" viewBox="0 0 19 18" fill="none" xmlns="http://www.w3.org/2000/svg">
<g id="UploadSimple">
<path id="Vector" d="M16.25 10.6875V14.625C16.25 14.9233 16.1315 15.2095 15.9205 15.4204C15.7095 15.6314 15.4234 15.75 15.125 15.75H3.875C3.57663 15.75 3.29048 15.6314 3.0795 15.4204C2.86853 15.2095 2.75 14.9233 2.75 14.625V10.6875C2.75 10.5383 2.80926 10.3952 2.91475 10.2897C3.02024 10.1842 3.16332 10.125 3.3125 10.125C3.46168 10.125 3.60476 10.1842 3.71025 10.2897C3.81574 10.3952 3.875 10.5383 3.875 10.6875V14.625H15.125V10.6875C15.125 10.5383 15.1843 10.3952 15.2898 10.2897C15.3952 10.1842 15.5383 10.125 15.6875 10.125C15.8367 10.125 15.9798 10.1842 16.0852 10.2897C16.1907 10.3952 16.25 10.5383 16.25 10.6875ZM6.6875 6.18745H8.9375V10.6875C8.9375 10.8366 8.99676 10.9797 9.10225 11.0852C9.20774 11.1907 9.35082 11.25 9.5 11.25C9.64918 11.25 9.79226 11.1907 9.89775 11.0852C10.0032 10.9797 10.0625 10.8366 10.0625 10.6875V6.18745H12.3125C12.4238 6.18754 12.5327 6.1546 12.6252 6.0928C12.7178 6.03099 12.79 5.94311 12.8326 5.84027C12.8752 5.73744 12.8864 5.62427 12.8646 5.51509C12.8429 5.40592 12.7892 5.30565 12.7105 5.22699L9.89797 2.41449C9.84573 2.36219 9.78369 2.3207 9.7154 2.29239C9.64712 2.26408 9.57392 2.24951 9.5 2.24951C9.42608 2.24951 9.35288 2.26408 9.2846 2.29239C9.21631 2.3207 9.15427 2.36219 9.10203 2.41449L6.28953 5.22699C6.21077 5.30565 6.15713 5.40592 6.13539 5.51509C6.11365 5.62427 6.12479 5.73744 6.1674 5.84027C6.21001 5.94311 6.28218 6.03099 6.37476 6.0928C6.46734 6.1546 6.57618 6.18754 6.6875 6.18745Z" fill="#111111"/>
</g>
</svg>
